<svg xmlns="http://www.w3.org/2000/svg" xmlns:xlink="http://www.w3.org/1999/xlink" width="500" zoomAndPan="magnify" viewBox="0 0 375 374.999991" height="500" preserveAspectRatio="xMidYMid meet" version="1.0"><defs><clipPath id="1e1cfddf56"><path d="M 2.34375 0 L 372.84375 0 L 372.84375 374 L 2.34375 374 Z M 2.34375 0 " clip-rule="nonzero"/></clipPath></defs><rect x="-37.5" width="450" fill="#ffffff" y="-37.499999" height="449.999989" fill-opacity="1"/><rect x="-37.5" width="450" fill="#ffffff" y="-37.499999" height="449.999989" fill-opacity="1"/><g clip-path="url(#1e1cfddf56)"><path fill="#adb1b7" d="M 23.222656 117.859375 L 23.222656 256.675781 C 23.222656 281.421875 29.125 301.933594 40.410156 317.683594 C 45.214844 324.726562 51.117188 330.683594 58.125 335.546875 C 61.828125 338.160156 65.703125 340.496094 69.75 342.546875 C 73.796875 344.597656 77.96875 346.347656 82.265625 347.792969 C 86.566406 349.238281 90.945312 350.363281 95.410156 351.171875 C 99.871094 351.980469 104.371094 352.464844 108.902344 352.617188 L 108.902344 22.050781 C 55.105469 25.492188 23.222656 60.824219 23.222656 117.859375 Z M 334.589844 56.855469 C 329.738281 49.804688 323.789062 43.847656 316.746094 38.992188 C 301.261719 27.476562 280.792969 21.523438 256.386719 21.523438 L 133.570312 21.523438 L 133.570312 353.015625 L 256.386719 353.015625 C 316.089844 353.015625 351.777344 317.019531 351.777344 256.675781 L 351.777344 117.859375 C 351.777344 93.113281 345.875 72.601562 334.589844 56.855469 Z M 244.972656 220.949219 C 245.546875 221.519531 246.0625 222.140625 246.515625 222.816406 C 246.96875 223.488281 247.351562 224.199219 247.664062 224.949219 C 247.976562 225.699219 248.214844 226.472656 248.375 227.269531 C 248.53125 228.066406 248.613281 228.871094 248.613281 229.679688 C 248.613281 230.492188 248.53125 231.296875 248.375 232.09375 C 248.214844 232.890625 247.976562 233.664062 247.664062 234.414062 C 247.351562 235.164062 246.96875 235.875 246.515625 236.546875 C 246.0625 237.222656 245.546875 237.84375 244.972656 238.414062 C 243.839844 239.597656 242.523438 240.511719 241.019531 241.15625 C 239.515625 241.796875 237.945312 242.121094 236.3125 242.121094 C 234.671875 242.132812 233.101562 241.816406 231.59375 241.171875 C 230.089844 240.527344 228.773438 239.609375 227.652344 238.414062 L 185.53125 196.070312 C 184.96875 195.484375 184.464844 194.847656 184.023438 194.167969 C 183.582031 193.484375 183.210938 192.765625 182.90625 192.011719 C 182.605469 191.257812 182.375 190.484375 182.21875 189.683594 C 182.066406 188.886719 181.988281 188.082031 181.988281 187.269531 C 181.988281 186.457031 182.066406 185.652344 182.21875 184.851562 C 182.375 184.054688 182.605469 183.28125 182.90625 182.527344 C 183.210938 181.773438 183.582031 181.054688 184.023438 180.371094 C 184.464844 179.6875 184.96875 179.054688 185.53125 178.46875 L 227.652344 136.121094 C 228.210938 135.539062 228.828125 135.023438 229.492188 134.566406 C 230.160156 134.109375 230.863281 133.722656 231.609375 133.40625 C 232.351562 133.089844 233.121094 132.851562 233.910156 132.691406 C 234.703125 132.53125 235.503906 132.449219 236.3125 132.449219 C 237.117188 132.449219 237.917969 132.53125 238.710938 132.691406 C 239.503906 132.851562 240.269531 133.089844 241.015625 133.40625 C 241.757812 133.722656 242.464844 134.109375 243.128906 134.566406 C 243.796875 135.023438 244.410156 135.539062 244.972656 136.121094 C 245.546875 136.691406 246.0625 137.316406 246.515625 137.988281 C 246.96875 138.664062 247.351562 139.375 247.664062 140.125 C 247.976562 140.875 248.214844 141.648438 248.375 142.441406 C 248.53125 143.238281 248.613281 144.042969 248.613281 144.855469 C 248.613281 145.667969 248.53125 146.472656 248.375 147.269531 C 248.214844 148.066406 247.976562 148.835938 247.664062 149.585938 C 247.351562 150.335938 246.96875 151.046875 246.515625 151.722656 C 246.0625 152.394531 245.546875 153.019531 244.972656 153.589844 L 211.773438 187.203125 Z M 2.359375 256.675781 L 2.359375 117.859375 C 2.359375 84.117188 12.199219 56.195312 30.4375 35.949219 C 48.546875 15.699219 74.261719 3.65625 106.148438 1.277344 C 107.058594 1.121094 107.980469 1.035156 108.902344 1.011719 C 111.0625 1.019531 113.175781 1.351562 115.234375 2.003906 C 117.292969 2.660156 119.207031 3.609375 120.976562 4.847656 C 122.785156 3.46875 124.765625 2.417969 126.921875 1.691406 C 129.078125 0.964844 131.296875 0.605469 133.570312 0.613281 L 256.386719 0.613281 C 269.664062 0.496094 282.695312 2.21875 295.488281 5.773438 C 307.609375 9.152344 318.761719 14.53125 328.949219 21.917969 L 328.949219 22.050781 C 337.578125 28 344.878906 35.28125 350.859375 43.886719 L 351.386719 44.546875 C 358.683594 54.878906 364.0625 66.128906 367.523438 78.292969 C 371.054688 91.246094 372.757812 104.4375 372.640625 117.859375 L 372.640625 256.675781 C 372.640625 292.671875 361.621094 321.785156 341.28125 342.296875 C 320.945312 362.808594 291.945312 373.921875 256.386719 373.921875 L 133.570312 373.921875 C 131.296875 373.917969 129.082031 373.554688 126.929688 372.832031 C 124.773438 372.105469 122.789062 371.058594 120.976562 369.6875 C 119.046875 371.117188 116.933594 372.175781 114.632812 372.855469 C 112.332031 373.539062 109.984375 373.804688 107.589844 373.660156 C 96.300781 372.945312 85.277344 370.828125 74.527344 367.308594 C 64.238281 363.820312 54.703125 358.882812 45.921875 352.484375 C 42.019531 349.8125 38.390625 346.8125 35.03125 343.488281 C 34.621094 343.058594 34.183594 342.660156 33.71875 342.296875 C 30.179688 338.699219 26.988281 334.816406 24.140625 330.652344 L 23.613281 329.988281 C 16.207031 319.710938 10.828125 308.460938 7.476562 296.242188 C 3.945312 283.289062 2.242188 270.101562 2.359375 256.675781 Z M 2.359375 256.675781 " fill-opacity="1" fill-rule="evenodd"/></g></svg>