<svg xmlns="http://www.w3.org/2000/svg" xmlns:xlink="http://www.w3.org/1999/xlink" width="500" zoomAndPan="magnify" viewBox="0 0 375 374.999991" height="500" preserveAspectRatio="xMidYMid meet" version="1.0"><defs><clipPath id="61f1a5f51f"><path d="M 187.5 0 C 83.945312 0 0 83.945312 0 187.5 C 0 291.054688 83.945312 375 187.5 375 C 291.054688 375 375 291.054688 375 187.5 C 375 83.945312 291.054688 0 187.5 0 Z M 187.5 0 " clip-rule="nonzero"/></clipPath><clipPath id="701f406f86"><path d="M 0 0 L 375 0 L 375 375 L 0 375 Z M 0 0 " clip-rule="nonzero"/></clipPath><clipPath id="8690052b25"><path d="M 187.5 0 C 83.945312 0 0 83.945312 0 187.5 C 0 291.054688 83.945312 375 187.5 375 C 291.054688 375 375 291.054688 375 187.5 C 375 83.945312 291.054688 0 187.5 0 Z M 187.5 0 " clip-rule="nonzero"/></clipPath><clipPath id="56085ecc6f"><rect x="0" width="375" y="0" height="375"/></clipPath><clipPath id="5c8892c65d"><path d="M 44.707031 9.5625 L 330.457031 9.5625 L 330.457031 365.0625 L 44.707031 365.0625 Z M 44.707031 9.5625 " clip-rule="nonzero"/></clipPath></defs><rect x="-37.5" width="450" fill="#ffffff" y="-37.499999" height="449.999989" fill-opacity="1"/><rect x="-37.5" width="450" fill="#ffffff" y="-37.499999" height="449.999989" fill-opacity="1"/><g clip-path="url(#61f1a5f51f)"><g transform="matrix(1, 0, 0, 1, 0, 0)"><g clip-path="url(#56085ecc6f)"><g clip-path="url(#701f406f86)"><g clip-path="url(#8690052b25)"><rect x="-82.5" width="540" fill="#ec4220" height="539.999987" y="-82.499998" fill-opacity="1"/></g></g></g></g></g><g clip-path="url(#5c8892c65d)"><path fill="#ffffff" d="M 202.398438 10.554688 C 199.582031 11.992188 198.503906 13.191406 196.585938 17.085938 C 192.210938 25.710938 182.867188 39.792969 174 50.933594 C 171.542969 54.050781 164.234375 62.796875 157.765625 70.40625 C 133.5 98.921875 127.089844 108.328125 120.980469 124.742188 C 117.445312 134.265625 116.546875 138.878906 114.871094 155.714844 L 114.511719 159.011719 L 113.371094 157.511719 C 111.394531 154.9375 108.21875 148.40625 106.601562 143.492188 C 104.386719 136.84375 103.246094 129.714844 103.246094 122.40625 C 103.246094 113.480469 101.628906 110.484375 96 108.984375 C 93.542969 108.328125 92.824219 108.386719 90.425781 109.285156 C 87.972656 110.242188 86.953125 111.261719 81.742188 118.210938 C 63.648438 142.535156 52.683594 168.773438 47.234375 200.828125 C 43.339844 224.070312 43.9375 247.015625 49.089844 267.324219 C 60.414062 312.4375 96.71875 347.960938 143.925781 360.125 C 187 371.265625 234.566406 364.199219 269.253906 341.613281 C 286.210938 330.527344 301.667969 314.832031 311.371094 298.898438 C 318.921875 286.4375 325.269531 269.902344 328.265625 255.222656 C 330.421875 244.378906 330.960938 224.910156 329.464844 212.988281 C 326.167969 187.464844 317.78125 163.800781 304.78125 143.375 C 301.546875 138.339844 296.574219 136.605469 291.722656 138.941406 C 288.304688 140.617188 287.347656 142.117188 285.609375 148.765625 C 282.734375 159.429688 276.804688 167.515625 268.957031 171.351562 C 265.480469 173.089844 258.410156 174.707031 258.410156 173.746094 C 258.410156 173.507812 259.132812 171.351562 259.96875 168.894531 C 261.945312 163.144531 264.640625 151.820312 266.019531 143.492188 C 267.519531 134.328125 267.519531 112.699219 266.019531 103.355469 C 261.828125 77.832031 251.761719 53.988281 236.964844 34.757812 C 229.417969 24.933594 216.953125 13.25 211.382812 10.734375 C 208.449219 9.355469 204.792969 9.296875 202.398438 10.554688 Z M 213.539062 35.777344 C 230.195312 52.910156 241.816406 74.957031 246.730469 98.5625 C 251.640625 122.226562 249.425781 146.789062 240.320312 169.253906 C 236.1875 179.558594 236.066406 179.917969 236.84375 182.613281 C 238.164062 187.644531 241.039062 189.625 249.605469 191.359375 C 260.628906 193.636719 271.234375 191.601562 281.476562 185.070312 C 285.671875 182.433594 293.519531 174.527344 295.675781 170.8125 C 296.394531 169.492188 297.234375 168.355469 297.414062 168.355469 C 298.730469 168.355469 305.621094 186.988281 308.136719 197.230469 C 311.371094 210.472656 312.03125 216.042969 312.03125 230.363281 C 311.96875 241.382812 311.789062 244.679688 310.652344 250.609375 C 303.882812 286.375 281.117188 316.332031 247.988281 332.925781 C 242.238281 335.800781 231.632812 340.292969 230.554688 340.292969 C 230.375 340.292969 231.871094 338.855469 233.96875 337.058594 C 245.589844 327.175781 253.378906 313.636719 256.972656 297.160156 C 258.710938 289.132812 258.472656 274.515625 256.433594 264.75 C 254.457031 255.34375 251.460938 246.597656 247.390625 238.390625 C 241.21875 225.988281 238.222656 222.871094 232.53125 222.871094 C 227.558594 222.871094 224.382812 226.109375 223.125 232.398438 C 221.808594 239.046875 221.328125 238.929688 217.253906 230.902344 C 209.765625 216.28125 207.730469 207.65625 208.328125 193.636719 C 208.6875 185.011719 208.6875 184.351562 207.488281 182.433594 C 206.171875 180.277344 202.097656 177.941406 199.640625 177.941406 C 194.789062 177.941406 181.070312 184.292969 173.339844 190.101562 C 163.753906 197.351562 155.488281 207.175781 150.335938 217.359375 C 147.761719 222.453125 144.824219 230.960938 144.285156 234.972656 C 144.046875 236.59375 143.6875 237.851562 143.445312 237.789062 C 143.265625 237.789062 141.769531 236.171875 140.152344 234.136719 C 136.976562 230.300781 134.582031 228.863281 131.105469 228.863281 C 126.132812 228.863281 123.738281 231.5 120.082031 240.84375 C 114.269531 255.761719 112.054688 266.847656 111.996094 281.285156 C 111.996094 298.296875 115.410156 310.339844 123.917969 323.21875 C 127.152344 328.132812 133.382812 334.960938 137.695312 338.4375 L 140.09375 340.355469 L 137.097656 339.214844 C 129.1875 336.101562 126.253906 334.78125 121.101562 331.847656 C 107.742188 324.359375 97.675781 316.210938 89.050781 305.90625 C 71.136719 284.578125 63.109375 261.214844 63.109375 230.480469 C 63.109375 206.398438 67.601562 184.832031 77.488281 161.464844 C 79.941406 155.535156 86.472656 143.195312 87.074219 143.195312 C 87.253906 143.195312 88.152344 145.589844 89.050781 148.464844 C 92.765625 160.027344 98.695312 169.851562 107.140625 178.300781 C 118.882812 190.164062 126.730469 192.917969 132.363281 187.285156 C 135.238281 184.410156 135.71875 181.894531 134.519531 175.664062 C 132.960938 167.457031 133.203125 150.683594 134.941406 142.59375 C 136.675781 134.445312 138.714844 128.636719 142.1875 121.625 C 147.460938 111.082031 153.453125 103.054688 171.605469 82.027344 C 188.917969 61.835938 199.339844 48.238281 205.992188 36.914062 C 207.667969 34.101562 209.105469 31.824219 209.285156 31.761719 C 209.464844 31.761719 211.382812 33.558594 213.539062 35.777344 Z M 191.851562 215.804688 C 192.511719 218.679688 194.011719 223.53125 195.207031 226.527344 C 198.382812 234.792969 210.84375 258.519531 212.882812 260.195312 C 215.039062 262.054688 218.152344 262.652344 221.207031 261.8125 C 223.84375 261.09375 229.777344 256.960938 232.171875 254.144531 L 233.730469 252.289062 L 234.628906 254.503906 C 239.601562 266.964844 241.339844 284.519531 238.703125 295.664062 C 234.746094 312.195312 223.90625 325.257812 208.386719 332.027344 C 193.652344 338.496094 174.417969 338.078125 160.042969 331.007812 C 144.703125 323.398438 134.519531 310.339844 131.105469 293.925781 C 130.148438 289.011719 129.726562 276.191406 130.507812 271.699219 C 131.226562 267.085938 132.664062 260.914062 133.5625 258.039062 L 134.519531 255.222656 L 138.355469 258.699219 C 148.238281 267.625 155.25 268.824219 160.042969 262.53125 C 161.660156 260.4375 161.660156 260.316406 161.480469 252.167969 C 161.238281 242.703125 162.257812 235.992188 165.015625 228.863281 C 168.488281 219.757812 176.335938 210.113281 185.324219 203.761719 L 189.816406 200.648438 L 190.234375 205.617188 C 190.414062 208.375 191.132812 212.929688 191.851562 215.804688 Z M 191.851562 215.804688 " fill-opacity="1" fill-rule="nonzero"/></g></svg>