<svg xmlns="http://www.w3.org/2000/svg" xmlns:xlink="http://www.w3.org/1999/xlink" width="500" zoomAndPan="magnify" viewBox="0 0 375 374.999991" height="500" preserveAspectRatio="xMidYMid meet" version="1.0"><defs><clipPath id="f12368ce2f"><path d="M 187.5 0 C 83.945312 0 0 83.945312 0 187.5 C 0 291.054688 83.945312 375 187.5 375 C 291.054688 375 375 291.054688 375 187.5 C 375 83.945312 291.054688 0 187.5 0 Z M 187.5 0 " clip-rule="nonzero"/></clipPath><clipPath id="882cec7e4c"><path d="M 0 0 L 375 0 L 375 375 L 0 375 Z M 0 0 " clip-rule="nonzero"/></clipPath><clipPath id="4ef0d82f1d"><path d="M 187.5 0 C 83.945312 0 0 83.945312 0 187.5 C 0 291.054688 83.945312 375 187.5 375 C 291.054688 375 375 291.054688 375 187.5 C 375 83.945312 291.054688 0 187.5 0 Z M 187.5 0 " clip-rule="nonzero"/></clipPath><clipPath id="efac8f42b1"><rect x="0" width="375" y="0" height="375"/></clipPath><clipPath id="d126b42473"><path d="M 72.835938 44.617188 L 302.335938 44.617188 L 302.335938 330.367188 L 72.835938 330.367188 Z M 72.835938 44.617188 " clip-rule="nonzero"/></clipPath></defs><rect x="-37.5" width="450" fill="#ffffff" y="-37.499999" height="449.999989" fill-opacity="1"/><rect x="-37.5" width="450" fill="#ffffff" y="-37.499999" height="449.999989" fill-opacity="1"/><g clip-path="url(#f12368ce2f)"><g transform="matrix(1, 0, 0, 1, 0, 0)"><g clip-path="url(#efac8f42b1)"><g clip-path="url(#882cec7e4c)"><g clip-path="url(#4ef0d82f1d)"><rect x="-82.5" width="540" fill="#ec4220" height="539.999987" y="-82.499998" fill-opacity="1"/></g></g></g></g></g><g clip-path="url(#d126b42473)"><path fill="#ffffff" d="M 199.460938 45.417969 C 197.199219 46.570312 196.335938 47.53125 194.796875 50.660156 C 191.285156 57.585938 183.777344 68.890625 176.660156 77.839844 C 174.6875 80.339844 168.816406 87.367188 163.621094 93.476562 C 144.140625 116.375 138.992188 123.925781 134.085938 137.109375 C 131.246094 144.757812 130.523438 148.460938 129.179688 161.980469 L 128.890625 164.625 L 127.976562 163.421875 C 126.386719 161.351562 123.839844 156.109375 122.539062 152.164062 C 120.757812 146.824219 119.84375 141.101562 119.84375 135.230469 C 119.84375 128.0625 118.546875 125.65625 114.023438 124.457031 C 112.050781 123.925781 111.476562 123.972656 109.550781 124.695312 C 107.578125 125.464844 106.761719 126.285156 102.574219 131.863281 C 88.046875 151.394531 79.242188 172.464844 74.867188 198.203125 C 71.738281 216.867188 72.21875 235.292969 76.355469 251.601562 C 85.449219 287.824219 114.601562 316.351562 152.511719 326.117188 C 187.097656 335.066406 225.296875 329.390625 253.148438 311.253906 C 266.761719 302.355469 279.175781 289.75 286.96875 276.953125 C 293.027344 266.945312 298.128906 253.667969 300.535156 241.882812 C 302.265625 233.175781 302.699219 217.542969 301.496094 207.96875 C 298.851562 187.476562 292.113281 168.472656 281.675781 152.070312 C 279.078125 148.027344 275.085938 146.632812 271.1875 148.507812 C 268.445312 149.855469 267.675781 151.058594 266.28125 156.398438 C 263.972656 164.960938 259.210938 171.457031 252.910156 174.535156 C 250.117188 175.929688 244.441406 177.226562 244.441406 176.457031 C 244.441406 176.265625 245.019531 174.535156 245.691406 172.5625 C 247.28125 167.945312 249.445312 158.851562 250.550781 152.164062 C 251.753906 144.804688 251.753906 127.4375 250.550781 119.933594 C 247.183594 99.441406 239.101562 80.292969 227.21875 64.851562 C 221.15625 56.960938 211.152344 47.582031 206.679688 45.5625 C 204.320312 44.453125 201.386719 44.40625 199.460938 45.417969 Z M 208.410156 65.667969 C 221.785156 79.425781 231.117188 97.132812 235.0625 116.085938 C 239.003906 135.085938 237.226562 154.8125 229.914062 172.851562 C 226.59375 181.125 226.496094 181.414062 227.125 183.578125 C 228.179688 187.621094 230.492188 189.207031 237.371094 190.601562 C 246.222656 192.429688 254.734375 190.792969 262.960938 185.550781 C 266.328125 183.433594 272.632812 177.085938 274.363281 174.101562 C 274.941406 173.042969 275.613281 172.128906 275.757812 172.128906 C 276.816406 172.128906 282.347656 187.089844 284.371094 195.316406 C 286.96875 205.949219 287.496094 210.421875 287.496094 221.917969 C 287.449219 230.769531 287.304688 233.417969 286.390625 238.179688 C 280.953125 266.898438 262.675781 290.953125 236.070312 304.277344 C 231.453125 306.585938 222.9375 310.195312 222.070312 310.195312 C 221.925781 310.195312 223.128906 309.039062 224.8125 307.597656 C 234.148438 299.660156 240.402344 288.789062 243.285156 275.558594 C 244.683594 269.113281 244.488281 257.375 242.855469 249.53125 C 241.265625 241.980469 238.859375 234.957031 235.589844 228.367188 C 230.636719 218.40625 228.230469 215.90625 223.660156 215.90625 C 219.667969 215.90625 217.117188 218.503906 216.105469 223.554688 C 215.046875 228.894531 214.664062 228.796875 211.390625 222.351562 C 205.378906 210.613281 203.742188 203.6875 204.222656 192.429688 C 204.511719 185.503906 204.511719 184.972656 203.550781 183.433594 C 202.492188 181.703125 199.222656 179.828125 197.25 179.828125 C 193.351562 179.828125 182.335938 184.925781 176.128906 189.59375 C 168.433594 195.414062 161.792969 203.300781 157.65625 211.480469 C 155.589844 215.570312 153.230469 222.402344 152.796875 225.625 C 152.605469 226.921875 152.316406 227.933594 152.125 227.882812 C 151.980469 227.882812 150.777344 226.585938 149.480469 224.949219 C 146.929688 221.871094 145.003906 220.714844 142.214844 220.714844 C 138.222656 220.714844 136.296875 222.832031 133.363281 230.339844 C 128.695312 242.316406 126.917969 251.214844 126.867188 262.808594 C 126.867188 276.472656 129.609375 286.140625 136.441406 296.484375 C 139.039062 300.429688 144.042969 305.914062 147.507812 308.703125 L 149.429688 310.242188 L 147.027344 309.328125 C 140.675781 306.828125 138.316406 305.769531 134.179688 303.410156 C 123.453125 297.398438 115.371094 290.855469 108.445312 282.582031 C 94.058594 265.457031 87.613281 246.695312 87.613281 222.015625 C 87.613281 202.675781 91.222656 185.359375 99.160156 166.597656 C 101.132812 161.835938 106.375 151.925781 106.855469 151.925781 C 107 151.925781 107.722656 153.847656 108.445312 156.15625 C 111.425781 165.441406 116.1875 173.332031 122.972656 180.113281 C 132.402344 189.640625 138.703125 191.851562 143.226562 187.332031 C 145.535156 185.023438 145.917969 183 144.957031 178 C 143.707031 171.40625 143.898438 157.9375 145.292969 151.441406 C 146.6875 144.902344 148.324219 140.234375 151.113281 134.605469 C 155.347656 126.140625 160.160156 119.691406 174.734375 102.808594 C 188.636719 86.59375 197.007812 75.675781 202.347656 66.582031 C 203.695312 64.320312 204.851562 62.496094 204.992188 62.445312 C 205.136719 62.445312 206.679688 63.890625 208.410156 65.667969 Z M 190.996094 210.230469 C 191.523438 212.539062 192.726562 216.433594 193.6875 218.839844 C 196.238281 225.480469 206.246094 244.53125 207.878906 245.875 C 209.613281 247.367188 212.113281 247.847656 214.566406 247.175781 C 216.683594 246.597656 221.445312 243.277344 223.371094 241.019531 L 224.621094 239.527344 L 225.34375 241.304688 C 229.335938 251.3125 230.730469 265.40625 228.613281 274.355469 C 225.4375 287.632812 216.730469 298.121094 204.273438 303.554688 C 192.4375 308.75 176.996094 308.414062 165.449219 302.738281 C 153.136719 296.628906 144.957031 286.140625 142.214844 272.960938 C 141.445312 269.015625 141.109375 258.722656 141.734375 255.113281 C 142.3125 251.410156 143.464844 246.453125 144.1875 244.144531 L 144.957031 241.882812 L 148.035156 244.675781 C 155.972656 251.839844 161.601562 252.804688 165.449219 247.753906 C 166.75 246.070312 166.75 245.972656 166.605469 239.429688 C 166.414062 231.828125 167.230469 226.441406 169.441406 220.714844 C 172.234375 213.40625 178.535156 205.660156 185.75 200.558594 L 189.359375 198.058594 L 189.695312 202.050781 C 189.839844 204.265625 190.417969 207.921875 190.996094 210.230469 Z M 190.996094 210.230469 " fill-opacity="1" fill-rule="nonzero"/></g></svg>
