<svg xmlns="http://www.w3.org/2000/svg" xmlns:xlink="http://www.w3.org/1999/xlink" width="500" zoomAndPan="magnify" viewBox="0 0 375 374.999991" height="500" preserveAspectRatio="xMidYMid meet" version="1.0"><rect x="-37.5" width="450" fill="#ffffff" y="-37.499999" height="449.999989" fill-opacity="1"/><rect x="-37.5" width="450" fill="#ffffff" y="-37.499999" height="449.999989" fill-opacity="1"/><path fill="#1a5a96" d="M 316.386719 202.417969 L 308.988281 179.867188 C 307.890625 176.519531 304.769531 174.253906 301.246094 174.253906 L 285.65625 174.253906 L 284.976562 173.636719 L 261.984375 152.667969 C 260.671875 151.472656 259.007812 150.742188 257.25 150.578125 L 218.160156 150.542969 L 218.160156 140.367188 C 218.160156 135.589844 214.285156 131.714844 209.507812 131.714844 L 203.9375 131.714844 L 203.9375 120.898438 L 308.523438 120.898438 C 313.027344 120.898438 316.675781 117.25 316.675781 112.746094 C 316.675781 108.246094 313.027344 104.597656 308.523438 104.597656 L 203.132812 104.597656 C 201.816406 101.855469 199.027344 99.957031 195.785156 99.957031 C 192.542969 99.957031 189.75 101.855469 188.4375 104.597656 L 83.042969 104.597656 C 78.542969 104.597656 74.894531 108.246094 74.894531 112.746094 C 74.894531 117.25 78.542969 120.898438 83.042969 120.898438 L 187.632812 120.898438 L 187.632812 131.714844 L 182.058594 131.714844 C 177.28125 131.714844 173.410156 135.589844 173.410156 140.367188 L 173.410156 150.542969 L 164.332031 150.542969 C 162.589844 150.542969 160.898438 151.097656 159.496094 152.128906 L 145.425781 162.5 L 81.929688 173.445312 L 68.152344 151.507812 C 66.660156 149.136719 64.054688 147.695312 61.25 147.695312 L 46.710938 147.695312 C 44.414062 147.695312 42.226562 148.664062 40.679688 150.359375 C 39.136719 152.058594 38.378906 154.332031 38.597656 156.617188 L 44.019531 213.539062 C 44.417969 217.722656 47.933594 220.917969 52.136719 220.917969 L 74.34375 220.917969 C 76.175781 220.917969 77.957031 220.296875 79.394531 219.160156 L 84.320312 215.273438 L 146.273438 218.628906 L 184.492188 241.28125 L 184.492188 253.410156 L 178.703125 253.410156 C 174.203125 253.410156 170.550781 257.058594 170.550781 261.558594 C 170.550781 266.0625 174.203125 269.710938 178.703125 269.710938 L 268.753906 269.710938 C 273.253906 269.710938 276.902344 266.0625 276.902344 261.558594 C 276.902344 257.058594 273.253906 253.410156 268.753906 253.410156 L 262.960938 253.410156 L 262.960938 245.742188 L 313.210938 211.707031 C 316.222656 209.667969 317.519531 205.875 316.386719 202.417969 Z M 189.929688 213.371094 L 153.730469 213.371094 C 146.546875 213.371094 140.71875 207.546875 140.71875 200.359375 C 140.71875 193.171875 146.546875 187.347656 153.730469 187.347656 L 189.929688 187.347656 Z M 200.796875 187.347656 L 204.339844 187.347656 C 208.648438 187.347656 212.167969 190.691406 212.464844 194.925781 L 216.621094 194.925781 C 219.625 194.925781 222.054688 197.359375 222.054688 200.359375 C 222.054688 203.359375 219.625 205.792969 216.621094 205.792969 L 212.464844 205.792969 C 212.167969 210.027344 208.648438 213.371094 204.339844 213.371094 L 200.796875 213.371094 Z M 252.09375 253.410156 L 195.363281 253.410156 L 195.363281 241.894531 L 252.09375 241.894531 Z M 229.652344 182.40625 L 229.652344 166.84375 L 253.335938 166.84375 L 270.402344 182.40625 Z M 229.652344 182.40625 " fill-opacity="1" fill-rule="nonzero"/></svg>