<svg xmlns="http://www.w3.org/2000/svg" xmlns:xlink="http://www.w3.org/1999/xlink" width="500" zoomAndPan="magnify" viewBox="0 0 375 374.999991" height="500" preserveAspectRatio="xMidYMid meet" version="1.0"><rect x="-37.5" width="450" fill="#ffffff" y="-37.499999" height="449.999989" fill-opacity="1"/><rect x="-37.5" width="450" fill="#ffffff" y="-37.499999" height="449.999989" fill-opacity="1"/><path fill="#1a5a96" d="M 277.152344 49.164062 C 266.050781 52.136719 258.449219 63.859375 262.515625 75.089844 L 297.664062 172.203125 C 300.128906 170.171875 303.246094 169.007812 306.503906 169.007812 C 311.777344 168.902344 317.453125 168.921875 322.542969 169.234375 L 302.808594 64.25 C 300.882812 54.019531 291.183594 47.863281 281.351562 48.472656 C 279.949219 48.5625 278.539062 48.792969 277.152344 49.164062 Z M 283.300781 67.011719 C 285.859375 67.011719 287.9375 69.089844 287.9375 71.648438 C 287.9375 74.210938 285.859375 76.285156 283.300781 76.285156 C 280.738281 76.285156 278.664062 74.210938 278.664062 71.648438 C 278.664062 69.089844 280.738281 67.011719 283.300781 67.011719 Z M 174.839844 99.851562 C 163.300781 104.875 156.277344 115.710938 152.703125 125.746094 L 148.855469 136.558594 L 204.789062 136.558594 C 206.355469 132.316406 208.523438 128.652344 215.003906 124.886719 L 260.324219 96.285156 L 253.792969 78.242188 C 252.578125 74.875 252.078125 71.492188 252.15625 68.199219 Z M 144.21875 145.832031 C 136.570312 145.832031 131.167969 152.308594 130.355469 159.21875 L 130.457031 158.636719 L 122.035156 192.210938 L 60.730469 192.210938 C 53.105469 192.210938 46.804688 198.484375 46.804688 206.113281 L 46.804688 238.597656 C 46.804688 246.222656 53.105469 252.492188 60.730469 252.492188 L 218.398438 252.492188 C 226.023438 252.492188 232.5 246.238281 232.328125 238.488281 L 232.328125 206.113281 C 232.320312 205.523438 232.203125 204.945312 231.984375 204.398438 L 213.433594 158.019531 C 212.4375 155.527344 211.300781 152.804688 209.25 150.351562 C 207.203125 147.894531 203.800781 145.832031 199.878906 145.832031 Z M 153.4375 164.390625 L 167.394531 164.390625 L 167.394531 201.492188 L 146.0625 201.492188 C 143.003906 201.496094 140.773438 198.589844 141.582031 195.632812 L 149.007812 167.839844 C 149.539062 165.824219 151.355469 164.414062 153.4375 164.390625 Z M 176.667969 164.390625 L 191.558594 164.390625 C 193.421875 164.386719 195.105469 165.503906 195.832031 167.222656 L 213.394531 208.957031 C 213.640625 209.527344 213.769531 210.144531 213.773438 210.765625 L 213.773438 229.324219 C 213.765625 231.871094 211.699219 233.933594 209.15625 233.941406 L 181.324219 233.941406 C 179.773438 233.949219 178.320312 233.175781 177.457031 231.886719 L 176.667969 230.699219 Z M 306.503906 178.28125 C 305.03125 178.28125 303.644531 178.980469 302.773438 180.164062 L 261.046875 235.789062 C 258.75 238.84375 260.925781 243.210938 264.742188 243.21875 L 292.574219 243.21875 C 310.476562 243.21875 325.015625 228.667969 325.015625 210.765625 L 325.015625 182.9375 C 325.023438 180.375 322.957031 178.292969 320.394531 178.28125 Z M 69.9375 210.695312 C 72.539062 210.660156 74.660156 212.78125 74.628906 215.386719 L 74.628906 229.324219 C 74.769531 235.648438 65.210938 235.648438 65.355469 229.324219 L 65.355469 215.386719 C 65.320312 212.824219 67.375 210.726562 69.9375 210.695312 Z M 88.492188 210.695312 C 91.097656 210.660156 93.214844 212.78125 93.1875 215.386719 L 93.1875 229.324219 C 93.324219 235.640625 83.773438 235.640625 83.910156 229.324219 L 83.910156 215.386719 C 83.875 212.824219 85.933594 210.726562 88.492188 210.695312 Z M 107.015625 210.695312 C 109.628906 210.640625 111.765625 212.773438 111.734375 215.386719 L 111.734375 229.324219 C 111.59375 235.371094 102.59375 235.371094 102.460938 229.324219 L 102.460938 215.386719 C 102.421875 212.835938 104.464844 210.738281 107.015625 210.695312 Z M 79.285156 261.765625 C 61.382812 261.765625 46.796875 276.320312 46.796875 294.222656 C 46.796875 312.125 61.382812 326.664062 79.285156 326.664062 L 223.019531 326.664062 C 240.921875 326.664062 255.460938 312.125 255.460938 294.222656 C 255.460938 276.320312 240.921875 261.765625 223.019531 261.765625 Z M 88.566406 280.320312 C 96.195312 280.320312 102.460938 286.597656 102.460938 294.222656 C 102.460938 301.851562 96.195312 308.152344 88.566406 308.152344 C 80.9375 308.152344 74.628906 301.851562 74.628906 294.222656 C 74.628906 286.597656 80.9375 280.320312 88.566406 280.320312 Z M 130.289062 280.320312 C 137.917969 280.320312 144.183594 286.597656 144.183594 294.222656 C 144.183594 301.851562 137.917969 308.152344 130.289062 308.152344 C 122.660156 308.152344 116.351562 301.851562 116.351562 294.222656 C 116.351562 286.597656 122.664062 280.320312 130.289062 280.320312 Z M 172.011719 280.320312 C 179.640625 280.320312 185.90625 286.597656 185.90625 294.222656 C 185.90625 301.851562 179.640625 308.152344 172.011719 308.152344 C 164.386719 308.152344 158.121094 301.851562 158.121094 294.222656 C 158.121094 286.597656 164.386719 280.320312 172.011719 280.320312 Z M 213.738281 280.320312 C 221.363281 280.320312 227.675781 286.597656 227.675781 294.222656 C 227.675781 301.851562 221.363281 308.152344 213.738281 308.152344 C 206.109375 308.152344 199.84375 301.851562 199.84375 294.222656 C 199.84375 286.597656 206.109375 280.320312 213.738281 280.320312 Z M 213.738281 280.320312 " fill-opacity="1" fill-rule="nonzero"/></svg>