<svg xmlns="http://www.w3.org/2000/svg" xmlns:xlink="http://www.w3.org/1999/xlink" width="500" zoomAndPan="magnify" viewBox="0 0 375 374.999991" height="500" preserveAspectRatio="xMidYMid meet" version="1.0"><rect x="-37.5" width="450" fill="#ffffff" y="-37.499999" height="449.999989" fill-opacity="1"/><rect x="-37.5" width="450" fill="#ffffff" y="-37.499999" height="449.999989" fill-opacity="1"/><path fill="#1a5a96" d="M 264.730469 218.28125 C 263.902344 217.824219 262.921875 217.710938 262.011719 217.972656 L 242.347656 223.550781 C 234.664062 225.570312 229.5 232.269531 229.5 240.21875 L 229.5 244.636719 C 229.5 246.539062 231.042969 248.082031 232.941406 248.085938 L 284.730469 248.085938 C 284.722656 248 284.71875 229.304688 284.71875 229.304688 Z M 267.910156 240.867188 L 246.320312 240.867188 C 244.332031 240.867188 242.722656 239.253906 242.722656 237.265625 C 242.722656 235.277344 244.332031 233.667969 246.320312 233.667969 L 267.910156 233.667969 C 269.898438 233.667969 271.507812 235.277344 271.507812 237.265625 C 271.507812 239.253906 269.898438 240.867188 267.910156 240.867188 Z M 267.910156 240.867188 " fill-opacity="1" fill-rule="nonzero"/><path fill="#1a5a96" d="M 315.304688 155.476562 C 314.179688 142.851562 304.367188 132.691406 291.90625 131.027344 L 291.90625 128.871094 C 291.90625 126.882812 290.292969 125.269531 288.304688 125.269531 C 286.320312 125.269531 284.707031 126.882812 284.707031 128.871094 L 284.707031 131.027344 C 272.246094 132.691406 262.4375 142.851562 261.3125 155.476562 C 269.113281 153.523438 278.515625 152.464844 288.304688 152.464844 C 298.097656 152.460938 307.503906 153.523438 315.304688 155.476562 Z M 315.304688 155.476562 " fill-opacity="1" fill-rule="nonzero"/><path fill="#1a5a96" d="M 304.710938 206.03125 C 299.824219 209.058594 294.195312 210.679688 288.320312 210.679688 C 288.320312 210.679688 288.132812 210.679688 288.042969 210.679688 C 282.144531 210.628906 276.625 208.90625 271.925781 205.964844 L 271.925781 214.09375 L 288.355469 223.152344 L 304.710938 214.132812 Z M 304.710938 206.03125 " fill-opacity="1" fill-rule="nonzero"/><path fill="#1a5a96" d="M 334.269531 223.550781 L 314.609375 217.972656 C 313.695312 217.710938 312.71875 217.824219 311.890625 218.28125 L 291.902344 229.304688 C 291.902344 229.304688 291.894531 248 291.890625 248.085938 L 343.675781 248.085938 C 345.578125 248.082031 347.117188 246.539062 347.117188 244.636719 L 347.117188 240.21875 C 347.117188 232.269531 341.953125 225.570312 334.269531 223.550781 Z M 330.296875 240.867188 L 308.707031 240.867188 C 306.722656 240.867188 305.109375 239.253906 305.109375 237.265625 C 305.109375 235.277344 306.722656 233.667969 308.707031 233.667969 L 330.296875 233.667969 C 332.285156 233.667969 333.894531 235.277344 333.894531 237.265625 C 333.894531 239.253906 332.285156 240.867188 330.296875 240.867188 Z M 330.296875 240.867188 " fill-opacity="1" fill-rule="nonzero"/><path fill="#1a5a96" d="M 248.316406 182.601562 C 249.855469 184.058594 251.660156 185.15625 253.554688 186.085938 C 254.695312 186.644531 255.980469 187.191406 257.429688 187.714844 C 257.175781 186.105469 257.042969 184.457031 257.042969 182.78125 L 257.042969 174.371094 C 257.042969 173.535156 257.152344 172.71875 257.359375 171.941406 C 258.46875 171.4375 259.808594 170.917969 261.417969 170.402344 C 262.320312 170.113281 263.261719 169.839844 264.242188 169.585938 L 264.242188 179.101562 C 264.242188 192.359375 274.839844 203.339844 288.09375 203.457031 C 294.601562 203.511719 300.742188 200.984375 305.359375 196.351562 C 309.90625 191.789062 312.398438 185.761719 312.378906 179.371094 L 312.351562 169.578125 C 313.339844 169.835938 314.289062 170.109375 315.199219 170.402344 C 316.796875 170.914062 318.125 171.425781 319.230469 171.929688 C 319.433594 172.699219 319.542969 173.507812 319.546875 174.332031 L 319.574219 183.027344 C 319.578125 184.605469 319.464844 186.164062 319.242188 187.699219 C 328.667969 184.296875 331.21875 179.941406 331.464844 176.507812 C 331.46875 176.484375 331.46875 176.460938 331.46875 176.441406 C 331.605469 174.28125 330.8125 172.226562 329.476562 170.554688 C 329.472656 170.566406 329.472656 170.574219 329.46875 170.585938 C 328.523438 169.410156 327.324219 168.386719 326.039062 167.515625 C 324.863281 166.714844 323.617188 166.039062 322.429688 165.484375 C 320.796875 164.722656 319.109375 164.09375 317.394531 163.546875 C 309.574219 161.042969 299.242188 159.664062 288.308594 159.664062 C 277.375 159.664062 267.042969 161.042969 259.222656 163.546875 C 247.574219 167.273438 245.128906 172.339844 245.128906 175.929688 C 245.128906 177.980469 245.980469 179.90625 247.265625 181.476562 C 247.59375 181.871094 247.945312 182.246094 248.316406 182.601562 Z M 248.316406 182.601562 " fill-opacity="1" fill-rule="nonzero"/><path fill="#1a5a96" d="M 245.570312 233.726562 L 268.554688 233.726562 C 269.03125 233.726562 269.488281 233.816406 269.929688 234 C 270.367188 234.179688 270.753906 234.441406 271.09375 234.777344 C 271.429688 235.113281 271.6875 235.5 271.871094 235.941406 C 272.050781 236.378906 272.144531 236.839844 272.144531 237.3125 C 272.144531 237.789062 272.050781 238.246094 271.871094 238.6875 C 271.6875 239.125 271.429688 239.515625 271.09375 239.851562 C 270.753906 240.1875 270.367188 240.445312 269.929688 240.628906 C 269.488281 240.8125 269.03125 240.902344 268.554688 240.902344 L 245.570312 240.902344 C 245.09375 240.902344 244.636719 240.8125 244.199219 240.628906 C 243.757812 240.445312 243.371094 240.1875 243.035156 239.851562 C 242.699219 239.515625 242.4375 239.125 242.257812 238.6875 C 242.074219 238.246094 241.984375 237.789062 241.984375 237.3125 C 241.984375 236.839844 242.074219 236.378906 242.257812 235.941406 C 242.4375 235.5 242.699219 235.113281 243.035156 234.777344 C 243.371094 234.441406 243.757812 234.179688 244.199219 234 C 244.636719 233.816406 245.09375 233.726562 245.570312 233.726562 Z M 245.570312 233.726562 " fill-opacity="1" fill-rule="nonzero"/><path fill="#1a5a96" d="M 245.570312 233.78125 L 268.554688 233.78125 C 269.03125 233.78125 269.488281 233.871094 269.929688 234.050781 C 270.367188 234.234375 270.753906 234.492188 271.09375 234.832031 C 271.429688 235.167969 271.6875 235.554688 271.871094 235.996094 C 272.050781 236.433594 272.144531 236.890625 272.144531 237.367188 C 272.144531 237.84375 272.050781 238.300781 271.871094 238.742188 C 271.6875 239.179688 271.429688 239.570312 271.09375 239.90625 C 270.753906 240.242188 270.367188 240.5 269.929688 240.683594 C 269.488281 240.867188 269.03125 240.957031 268.554688 240.957031 L 245.570312 240.957031 C 245.09375 240.957031 244.636719 240.867188 244.199219 240.683594 C 243.757812 240.5 243.371094 240.242188 243.035156 239.90625 C 242.699219 239.570312 242.4375 239.179688 242.257812 238.742188 C 242.074219 238.300781 241.984375 237.84375 241.984375 237.367188 C 241.984375 236.890625 242.074219 236.433594 242.257812 235.996094 C 242.4375 235.554688 242.699219 235.167969 243.035156 234.832031 C 243.371094 234.492188 243.757812 234.234375 244.199219 234.050781 C 244.636719 233.871094 245.09375 233.78125 245.570312 233.78125 Z M 245.570312 233.78125 " fill-opacity="1" fill-rule="nonzero"/><path fill="#1a5a96" d="M 56.203125 218.28125 C 55.375 217.824219 54.398438 217.710938 53.484375 217.972656 L 33.824219 223.550781 C 26.136719 225.570312 20.972656 232.269531 20.972656 240.21875 L 20.972656 244.636719 C 20.972656 246.539062 22.515625 248.082031 24.414062 248.085938 L 76.203125 248.085938 C 76.199219 248 76.191406 229.304688 76.191406 229.304688 Z M 59.382812 240.867188 L 37.796875 240.867188 C 35.808594 240.867188 34.195312 239.253906 34.195312 237.265625 C 34.195312 235.277344 35.808594 233.667969 37.796875 233.667969 L 59.382812 233.667969 C 61.371094 233.667969 62.984375 235.277344 62.984375 237.265625 C 62.984375 239.253906 61.371094 240.867188 59.382812 240.867188 Z M 59.382812 240.867188 " fill-opacity="1" fill-rule="nonzero"/><path fill="#1a5a96" d="M 106.777344 155.476562 C 105.652344 142.851562 95.839844 132.691406 83.378906 131.027344 L 83.378906 128.871094 C 83.378906 126.882812 81.765625 125.269531 79.78125 125.269531 C 77.792969 125.269531 76.183594 126.882812 76.183594 128.871094 L 76.183594 131.027344 C 63.71875 132.691406 53.910156 142.851562 52.785156 155.476562 C 60.585938 153.523438 69.988281 152.464844 79.78125 152.464844 C 89.574219 152.460938 98.976562 153.523438 106.777344 155.476562 Z M 106.777344 155.476562 " fill-opacity="1" fill-rule="nonzero"/><path fill="#1a5a96" d="M 96.1875 206.03125 C 91.300781 209.058594 85.667969 210.679688 79.792969 210.679688 C 79.792969 210.679688 79.609375 210.679688 79.515625 210.679688 C 73.617188 210.628906 68.101562 208.90625 63.402344 205.964844 L 63.402344 214.09375 L 79.828125 223.152344 L 96.1875 214.132812 Z M 96.1875 206.03125 " fill-opacity="1" fill-rule="nonzero"/><path fill="#1a5a96" d="M 126.761719 223.699219 L 107.101562 218.121094 C 106.191406 217.863281 105.210938 217.972656 104.382812 218.429688 L 84.394531 229.453125 C 84.394531 229.453125 84.386719 248.144531 84.382812 248.234375 L 136.171875 248.234375 C 138.070312 248.230469 139.613281 246.6875 139.613281 244.785156 L 139.613281 240.367188 C 139.613281 232.417969 134.449219 225.71875 126.761719 223.699219 Z M 122.789062 241.015625 L 101.203125 241.015625 C 99.214844 241.015625 97.601562 239.402344 97.601562 237.414062 C 97.601562 235.429688 99.214844 233.816406 101.203125 233.816406 L 122.789062 233.816406 C 124.777344 233.816406 126.390625 235.429688 126.390625 237.414062 C 126.390625 239.402344 124.777344 241.015625 122.789062 241.015625 Z M 122.789062 241.015625 " fill-opacity="1" fill-rule="nonzero"/><path fill="#1a5a96" d="M 39.789062 182.601562 C 41.328125 184.058594 43.132812 185.15625 45.027344 186.085938 C 46.167969 186.644531 47.453125 187.191406 48.902344 187.714844 C 48.652344 186.105469 48.519531 184.457031 48.519531 182.78125 L 48.519531 174.371094 C 48.519531 173.535156 48.628906 172.71875 48.832031 171.941406 C 49.945312 171.4375 51.28125 170.917969 52.890625 170.402344 C 53.792969 170.113281 54.738281 169.839844 55.714844 169.585938 L 55.714844 179.101562 C 55.714844 192.359375 66.3125 203.339844 79.566406 203.457031 C 86.074219 203.511719 92.214844 200.984375 96.832031 196.351562 C 101.378906 191.789062 103.871094 185.761719 103.851562 179.371094 L 103.824219 169.578125 C 104.8125 169.835938 105.761719 170.109375 106.671875 170.402344 C 108.269531 170.914062 109.597656 171.425781 110.703125 171.929688 C 110.910156 172.699219 111.019531 173.507812 111.019531 174.332031 L 111.046875 183.027344 C 111.050781 184.605469 110.941406 186.164062 110.714844 187.699219 C 120.140625 184.296875 122.691406 179.941406 122.941406 176.507812 C 122.941406 176.484375 122.941406 176.460938 122.941406 176.441406 C 123.078125 174.28125 122.285156 172.226562 120.949219 170.554688 C 120.949219 170.566406 120.945312 170.574219 120.941406 170.585938 C 120 169.410156 118.796875 168.386719 117.515625 167.515625 C 116.335938 166.714844 115.089844 166.039062 113.90625 165.484375 C 112.273438 164.722656 110.582031 164.09375 108.867188 163.546875 C 101.046875 161.042969 90.71875 159.664062 79.78125 159.664062 C 68.847656 159.664062 58.519531 161.042969 50.699219 163.546875 C 39.050781 167.273438 36.601562 172.339844 36.601562 175.929688 C 36.601562 177.980469 37.453125 179.90625 38.742188 181.476562 C 39.066406 181.871094 39.417969 182.246094 39.789062 182.601562 Z M 39.789062 182.601562 " fill-opacity="1" fill-rule="nonzero"/><path fill="#1a5a96" d="M 100.882812 233.726562 L 123.867188 233.726562 C 124.34375 233.726562 124.800781 233.816406 125.238281 234 C 125.679688 234.179688 126.066406 234.441406 126.402344 234.777344 C 126.742188 235.113281 127 235.5 127.179688 235.941406 C 127.363281 236.378906 127.453125 236.839844 127.453125 237.3125 C 127.453125 237.789062 127.363281 238.246094 127.179688 238.6875 C 127 239.125 126.742188 239.515625 126.402344 239.851562 C 126.066406 240.1875 125.679688 240.445312 125.238281 240.628906 C 124.800781 240.8125 124.34375 240.902344 123.867188 240.902344 L 100.882812 240.902344 C 100.40625 240.902344 99.949219 240.8125 99.511719 240.628906 C 99.070312 240.445312 98.683594 240.1875 98.347656 239.851562 C 98.007812 239.515625 97.75 239.125 97.566406 238.6875 C 97.386719 238.246094 97.296875 237.789062 97.296875 237.3125 C 97.296875 236.839844 97.386719 236.378906 97.566406 235.941406 C 97.75 235.5 98.007812 235.113281 98.347656 234.777344 C 98.683594 234.441406 99.070312 234.179688 99.511719 234 C 99.949219 233.816406 100.40625 233.726562 100.882812 233.726562 Z M 100.882812 233.726562 " fill-opacity="1" fill-rule="nonzero"/><path fill="#1a5a96" d="M 154.742188 223.390625 C 153.695312 222.8125 152.460938 222.671875 151.308594 223 L 126.476562 230.046875 C 116.769531 232.597656 110.246094 241.058594 110.246094 251.097656 L 110.246094 256.679688 C 110.246094 259.082031 112.191406 261.03125 114.59375 261.035156 L 180.007812 261.035156 C 180 260.925781 179.988281 237.316406 179.988281 237.316406 Z M 158.761719 251.914062 L 131.492188 251.914062 C 128.980469 251.914062 126.945312 249.882812 126.945312 247.371094 C 126.945312 244.859375 128.980469 242.824219 131.492188 242.824219 L 158.761719 242.824219 C 161.269531 242.824219 163.304688 244.859375 163.304688 247.371094 C 163.304688 249.882812 161.269531 251.914062 158.761719 251.914062 Z M 158.761719 251.914062 " fill-opacity="1" fill-rule="nonzero"/><path fill="#1a5a96" d="M 218.621094 143.988281 C 217.199219 128.039062 204.804688 115.207031 189.066406 113.109375 L 189.066406 110.378906 C 189.066406 107.871094 187.03125 105.835938 184.519531 105.835938 C 182.011719 105.835938 179.976562 107.871094 179.976562 110.378906 L 179.976562 113.109375 C 164.234375 115.207031 151.84375 128.039062 150.421875 143.988281 C 160.277344 141.519531 172.152344 140.183594 184.519531 140.183594 C 196.890625 140.183594 208.765625 141.519531 218.621094 143.988281 Z M 218.621094 143.988281 " fill-opacity="1" fill-rule="nonzero"/><path fill="#1a5a96" d="M 205.253906 207.828125 C 199.082031 211.652344 191.96875 213.699219 184.546875 213.699219 C 184.546875 213.699219 184.3125 213.699219 184.195312 213.699219 C 176.746094 213.632812 169.777344 211.457031 163.84375 207.746094 L 163.84375 218.007812 L 184.589844 229.453125 L 205.253906 218.058594 Z M 205.253906 207.828125 " fill-opacity="1" fill-rule="nonzero"/><path fill="#1a5a96" d="M 242.601562 230.042969 L 217.765625 223 C 216.613281 222.671875 215.378906 222.8125 214.332031 223.390625 L 189.085938 237.3125 C 189.085938 237.3125 189.078125 260.925781 189.070312 261.035156 L 254.484375 261.035156 C 256.882812 261.03125 258.832031 259.082031 258.832031 256.679688 L 258.832031 251.097656 C 258.832031 241.058594 252.308594 232.597656 242.601562 230.042969 Z M 237.585938 251.914062 L 210.3125 251.914062 C 207.804688 251.914062 205.769531 249.882812 205.769531 247.371094 C 205.769531 244.859375 207.804688 242.824219 210.3125 242.824219 L 237.585938 242.824219 C 240.09375 242.824219 242.128906 244.859375 242.128906 247.371094 C 242.128906 249.882812 240.09375 251.914062 237.585938 251.914062 Z M 237.585938 251.914062 " fill-opacity="1" fill-rule="nonzero"/><path fill="#1a5a96" d="M 134.019531 178.226562 C 135.960938 180.070312 138.242188 181.457031 140.632812 182.628906 C 142.078125 183.335938 143.699219 184.023438 145.53125 184.683594 C 145.210938 182.652344 145.042969 180.574219 145.042969 178.457031 L 145.042969 167.832031 C 145.042969 166.777344 145.183594 165.746094 145.441406 164.765625 C 146.84375 164.125 148.535156 163.46875 150.566406 162.820312 C 151.707031 162.453125 152.898438 162.109375 154.132812 161.785156 L 154.132812 173.808594 C 154.132812 190.554688 167.519531 204.421875 184.261719 204.570312 C 192.480469 204.640625 200.238281 201.445312 206.070312 195.59375 C 211.808594 189.835938 214.960938 182.21875 214.933594 174.148438 L 214.902344 161.777344 C 216.148438 162.101562 217.351562 162.449219 218.5 162.820312 C 220.515625 163.464844 222.195312 164.117188 223.589844 164.75 C 223.847656 165.722656 223.988281 166.742188 223.992188 167.785156 L 224.023438 178.769531 C 224.03125 180.757812 223.886719 182.730469 223.601562 184.664062 C 235.511719 180.371094 238.734375 174.871094 239.042969 170.53125 C 239.046875 170.503906 239.046875 170.476562 239.050781 170.449219 C 239.222656 167.722656 238.21875 165.125 236.53125 163.015625 C 236.527344 163.027344 236.527344 163.039062 236.523438 163.050781 C 235.328125 161.566406 233.8125 160.273438 232.191406 159.171875 C 230.707031 158.160156 229.128906 157.304688 227.632812 156.609375 C 225.570312 155.648438 223.4375 154.851562 221.269531 154.160156 C 211.390625 150.996094 198.34375 149.253906 184.53125 149.253906 C 170.722656 149.253906 157.675781 150.996094 147.796875 154.160156 C 133.082031 158.867188 129.996094 165.265625 129.996094 169.804688 C 129.996094 172.394531 131.070312 174.824219 132.695312 176.804688 C 133.105469 177.308594 133.550781 177.78125 134.019531 178.226562 Z M 134.019531 178.226562 " fill-opacity="1" fill-rule="nonzero"/><path fill="#1a5a96" d="M 132.152344 242.847656 L 157.929688 242.847656 C 158.246094 242.847656 158.5625 242.878906 158.875 242.941406 C 159.183594 243.003906 159.488281 243.097656 159.78125 243.21875 C 160.074219 243.339844 160.351562 243.488281 160.617188 243.664062 C 160.882812 243.839844 161.125 244.039062 161.351562 244.265625 C 161.574219 244.488281 161.777344 244.734375 161.953125 244.996094 C 162.128906 245.261719 162.277344 245.539062 162.398438 245.832031 C 162.519531 246.125 162.613281 246.429688 162.675781 246.738281 C 162.738281 247.050781 162.769531 247.367188 162.769531 247.683594 C 162.769531 248 162.738281 248.316406 162.675781 248.625 C 162.613281 248.9375 162.519531 249.238281 162.398438 249.53125 C 162.277344 249.828125 162.128906 250.105469 161.953125 250.367188 C 161.777344 250.632812 161.574219 250.875 161.351562 251.101562 C 161.125 251.324219 160.882812 251.527344 160.617188 251.703125 C 160.351562 251.878906 160.074219 252.027344 159.78125 252.148438 C 159.488281 252.269531 159.183594 252.363281 158.875 252.425781 C 158.5625 252.484375 158.246094 252.515625 157.929688 252.515625 L 132.152344 252.515625 C 131.832031 252.515625 131.519531 252.484375 131.207031 252.425781 C 130.894531 252.363281 130.59375 252.269531 130.300781 252.148438 C 130.007812 252.027344 129.726562 251.878906 129.464844 251.703125 C 129.199219 251.527344 128.957031 251.324219 128.730469 251.101562 C 128.503906 250.875 128.304688 250.632812 128.128906 250.367188 C 127.953125 250.105469 127.804688 249.828125 127.683594 249.53125 C 127.558594 249.238281 127.46875 248.9375 127.40625 248.625 C 127.34375 248.316406 127.3125 248 127.3125 247.683594 C 127.3125 247.367188 127.34375 247.050781 127.40625 246.738281 C 127.46875 246.429688 127.558594 246.125 127.683594 245.832031 C 127.804688 245.539062 127.953125 245.261719 128.128906 244.996094 C 128.304688 244.734375 128.503906 244.488281 128.730469 244.265625 C 128.957031 244.039062 129.199219 243.839844 129.464844 243.664062 C 129.726562 243.488281 130.007812 243.339844 130.300781 243.21875 C 130.59375 243.097656 130.894531 243.003906 131.207031 242.941406 C 131.519531 242.878906 131.832031 242.847656 132.152344 242.847656 Z M 132.152344 242.847656 " fill-opacity="1" fill-rule="nonzero"/><path fill="#1a5a96" d="M 211.105469 242.847656 L 236.882812 242.847656 C 237.203125 242.847656 237.515625 242.878906 237.828125 242.941406 C 238.140625 243.003906 238.441406 243.097656 238.734375 243.21875 C 239.027344 243.339844 239.308594 243.488281 239.570312 243.664062 C 239.835938 243.839844 240.082031 244.039062 240.304688 244.265625 C 240.53125 244.488281 240.730469 244.734375 240.90625 244.996094 C 241.082031 245.261719 241.230469 245.539062 241.355469 245.832031 C 241.476562 246.125 241.566406 246.429688 241.628906 246.738281 C 241.691406 247.050781 241.722656 247.367188 241.722656 247.683594 C 241.722656 248 241.691406 248.316406 241.628906 248.625 C 241.566406 248.9375 241.476562 249.238281 241.355469 249.53125 C 241.230469 249.828125 241.082031 250.105469 240.90625 250.367188 C 240.730469 250.632812 240.53125 250.875 240.304688 251.101562 C 240.082031 251.324219 239.835938 251.527344 239.570312 251.703125 C 239.308594 251.878906 239.027344 252.027344 238.734375 252.148438 C 238.441406 252.269531 238.140625 252.363281 237.828125 252.425781 C 237.515625 252.484375 237.203125 252.515625 236.882812 252.515625 L 211.105469 252.515625 C 210.789062 252.515625 210.472656 252.484375 210.160156 252.425781 C 209.851562 252.363281 209.546875 252.269531 209.253906 252.148438 C 208.960938 252.027344 208.683594 251.878906 208.417969 251.703125 C 208.152344 251.527344 207.910156 251.324219 207.683594 251.101562 C 207.460938 250.875 207.257812 250.632812 207.082031 250.367188 C 206.90625 250.105469 206.757812 249.828125 206.636719 249.53125 C 206.515625 249.238281 206.421875 248.9375 206.359375 248.625 C 206.296875 248.316406 206.269531 248 206.269531 247.683594 C 206.269531 247.367188 206.296875 247.050781 206.359375 246.738281 C 206.421875 246.429688 206.515625 246.125 206.636719 245.832031 C 206.757812 245.539062 206.90625 245.261719 207.082031 244.996094 C 207.257812 244.734375 207.460938 244.488281 207.683594 244.265625 C 207.910156 244.039062 208.152344 243.839844 208.417969 243.664062 C 208.683594 243.488281 208.960938 243.339844 209.253906 243.21875 C 209.546875 243.097656 209.851562 243.003906 210.160156 242.941406 C 210.472656 242.878906 210.789062 242.847656 211.105469 242.847656 Z M 211.105469 242.847656 " fill-opacity="1" fill-rule="nonzero"/></svg>