<svg xmlns="http://www.w3.org/2000/svg" xmlns:xlink="http://www.w3.org/1999/xlink" width="500" zoomAndPan="magnify" viewBox="0 0 375 374.999991" height="500" preserveAspectRatio="xMidYMid meet" version="1.0"><defs><clipPath id="052cc9f9ef"><path d="M 39.648438 39.648438 L 337.398438 39.648438 L 337.398438 337.398438 L 39.648438 337.398438 Z M 39.648438 39.648438 " clip-rule="nonzero"/></clipPath></defs><rect x="-37.5" width="450" fill="#ffffff" y="-37.499999" height="449.999989" fill-opacity="1"/><rect x="-37.5" width="450" fill="#ffffff" y="-37.499999" height="449.999989" fill-opacity="1"/><g clip-path="url(#052cc9f9ef)"><path fill="#adb1b7" d="M 252.695312 39.664062 C 250.9375 39.664062 249.199219 40.296875 247.933594 41.570312 C 235.28125 54.21875 229.113281 71.203125 230.082031 88.464844 C 230.164062 91.808594 230.417969 95.140625 231.058594 98.4375 L 231.429688 98.355469 C 231.601562 99.148438 231.671875 99.945312 231.878906 100.738281 L 172.3125 137.582031 C 140.394531 129.414062 106.355469 138.59375 82.941406 161.996094 C 81.667969 163.269531 80.984375 164.980469 80.984375 166.78125 C 80.984375 168.582031 81.679688 170.296875 82.941406 171.570312 L 205.535156 294.164062 C 206.863281 295.492188 208.617188 296.121094 210.347656 296.121094 C 212.082031 296.121094 213.808594 295.476562 215.136719 294.164062 C 238.429688 270.886719 247.660156 237.027344 239.628906 205.160156 L 276.683594 145.304688 C 277.476562 145.503906 278.269531 145.585938 279.066406 145.753906 L 279.011719 146.097656 C 282.226562 146.703125 285.484375 146.945312 288.746094 147.023438 C 305.988281 147.964844 322.917969 141.800781 335.535156 129.195312 C 336.808594 127.925781 337.519531 126.210938 337.519531 124.410156 C 337.519531 122.609375 336.796875 120.867188 335.535156 119.59375 L 257.507812 41.570312 C 256.234375 40.296875 254.453125 39.664062 252.695312 39.664062 Z M 127.296875 235.472656 L 53.183594 309.558594 C 48.484375 314.242188 45.03125 320.042969 43.082031 326.378906 L 39.667969 337.4375 L 50.722656 334.078125 C 57.0625 332.125 62.859375 328.632812 67.546875 323.945312 L 141.660156 249.835938 Z M 127.296875 235.472656 " fill-opacity="1" fill-rule="nonzero"/></g></svg>