<svg xmlns="http://www.w3.org/2000/svg" xmlns:xlink="http://www.w3.org/1999/xlink" width="500" zoomAndPan="magnify" viewBox="0 0 375 374.999991" height="500" preserveAspectRatio="xMidYMid meet" version="1.0"><defs><clipPath id="93eb23f11f"><path d="M 2.34375 0 L 372.84375 0 L 372.84375 375 L 2.34375 375 Z M 2.34375 0 " clip-rule="nonzero"/></clipPath><clipPath id="cf9c747c1a"><path d="M 0.34375 0 L 370.65625 0 L 370.65625 374 L 0.34375 374 Z M 0.34375 0 " clip-rule="nonzero"/></clipPath><clipPath id="6c99805021"><rect x="0" width="371" y="0" height="375"/></clipPath></defs><rect x="-37.5" width="450" fill="#ffffff" y="-37.499999" height="449.999989" fill-opacity="1"/><rect x="-37.5" width="450" fill="#ffffff" y="-37.499999" height="449.999989" fill-opacity="1"/><g clip-path="url(#93eb23f11f)"><g transform="matrix(1, 0, 0, 1, 2, 0)"><g clip-path="url(#6c99805021)"><g clip-path="url(#cf9c747c1a)"><path fill="#adb1b7" d="M 349.777344 117.859375 L 349.777344 256.675781 C 349.777344 281.421875 343.875 301.933594 332.589844 317.683594 C 327.785156 324.726562 321.882812 330.683594 314.875 335.546875 C 311.171875 338.160156 307.296875 340.496094 303.25 342.546875 C 299.203125 344.597656 295.03125 346.347656 290.734375 347.792969 C 286.433594 349.238281 282.054688 350.363281 277.589844 351.171875 C 273.128906 351.980469 268.628906 352.464844 264.097656 352.617188 L 264.097656 22.050781 C 317.894531 25.492188 349.777344 60.824219 349.777344 117.859375 Z M 38.410156 56.855469 C 43.261719 49.804688 49.210938 43.847656 56.253906 38.992188 C 71.738281 27.476562 92.207031 21.523438 116.613281 21.523438 L 239.429688 21.523438 L 239.429688 353.015625 L 116.613281 353.015625 C 56.910156 353.015625 21.222656 317.019531 21.222656 256.675781 L 21.222656 117.859375 C 21.222656 93.113281 27.125 72.601562 38.410156 56.855469 Z M 128.027344 220.949219 C 127.453125 221.519531 126.9375 222.140625 126.484375 222.816406 C 126.03125 223.488281 125.648438 224.199219 125.335938 224.949219 C 125.023438 225.699219 124.785156 226.472656 124.625 227.269531 C 124.46875 228.066406 124.386719 228.871094 124.386719 229.679688 C 124.386719 230.492188 124.46875 231.296875 124.625 232.09375 C 124.785156 232.890625 125.023438 233.664062 125.335938 234.414062 C 125.648438 235.164062 126.03125 235.875 126.484375 236.546875 C 126.9375 237.222656 127.453125 237.84375 128.027344 238.414062 C 129.160156 239.597656 130.476562 240.511719 131.980469 241.15625 C 133.484375 241.796875 135.054688 242.121094 136.6875 242.121094 C 138.328125 242.132812 139.898438 241.816406 141.40625 241.171875 C 142.910156 240.527344 144.226562 239.609375 145.347656 238.414062 L 187.46875 196.070312 C 188.03125 195.484375 188.535156 194.847656 188.976562 194.167969 C 189.417969 193.484375 189.789062 192.765625 190.09375 192.011719 C 190.394531 191.257812 190.625 190.484375 190.78125 189.683594 C 190.933594 188.886719 191.011719 188.082031 191.011719 187.269531 C 191.011719 186.457031 190.933594 185.652344 190.78125 184.851562 C 190.625 184.054688 190.394531 183.28125 190.09375 182.527344 C 189.789062 181.773438 189.417969 181.054688 188.976562 180.371094 C 188.535156 179.6875 188.03125 179.054688 187.46875 178.46875 L 145.347656 136.121094 C 144.789062 135.539062 144.171875 135.023438 143.507812 134.566406 C 142.839844 134.109375 142.136719 133.722656 141.390625 133.40625 C 140.648438 133.089844 139.878906 132.851562 139.089844 132.691406 C 138.296875 132.53125 137.496094 132.449219 136.6875 132.449219 C 135.882812 132.449219 135.082031 132.53125 134.289062 132.691406 C 133.496094 132.851562 132.730469 133.089844 131.984375 133.40625 C 131.242188 133.722656 130.535156 134.109375 129.871094 134.566406 C 129.203125 135.023438 128.589844 135.539062 128.027344 136.121094 C 127.453125 136.691406 126.9375 137.316406 126.484375 137.988281 C 126.03125 138.664062 125.648438 139.375 125.335938 140.125 C 125.023438 140.875 124.785156 141.648438 124.625 142.441406 C 124.46875 143.238281 124.386719 144.042969 124.386719 144.855469 C 124.386719 145.667969 124.46875 146.472656 124.625 147.269531 C 124.785156 148.066406 125.023438 148.835938 125.335938 149.585938 C 125.648438 150.335938 126.03125 151.046875 126.484375 151.722656 C 126.9375 152.394531 127.453125 153.019531 128.027344 153.589844 L 161.226562 187.203125 Z M 370.640625 256.675781 L 370.640625 117.859375 C 370.640625 84.117188 360.800781 56.195312 342.5625 35.949219 C 324.453125 15.699219 298.738281 3.65625 266.851562 1.277344 C 265.941406 1.121094 265.019531 1.035156 264.097656 1.011719 C 261.9375 1.019531 259.824219 1.351562 257.765625 2.003906 C 255.707031 2.660156 253.792969 3.609375 252.023438 4.847656 C 250.214844 3.46875 248.234375 2.417969 246.078125 1.691406 C 243.921875 0.964844 241.703125 0.605469 239.429688 0.613281 L 116.613281 0.613281 C 103.335938 0.496094 90.304688 2.21875 77.511719 5.773438 C 65.390625 9.152344 54.238281 14.53125 44.050781 21.917969 L 44.050781 22.050781 C 35.421875 28 28.121094 35.28125 22.140625 43.886719 L 21.613281 44.546875 C 14.316406 54.878906 8.9375 66.128906 5.476562 78.292969 C 1.945312 91.246094 0.242188 104.4375 0.359375 117.859375 L 0.359375 256.675781 C 0.359375 292.671875 11.378906 321.785156 31.71875 342.296875 C 52.054688 362.808594 81.054688 373.921875 116.613281 373.921875 L 239.429688 373.921875 C 241.703125 373.917969 243.917969 373.554688 246.070312 372.832031 C 248.226562 372.105469 250.210938 371.058594 252.023438 369.6875 C 253.953125 371.117188 256.066406 372.175781 258.367188 372.855469 C 260.667969 373.539062 263.015625 373.804688 265.410156 373.660156 C 276.699219 372.945312 287.722656 370.828125 298.472656 367.308594 C 308.761719 363.820312 318.296875 358.882812 327.078125 352.484375 C 330.980469 349.8125 334.609375 346.8125 337.96875 343.488281 C 338.378906 343.058594 338.816406 342.660156 339.28125 342.296875 C 342.820312 338.699219 346.011719 334.816406 348.859375 330.652344 L 349.386719 329.988281 C 356.792969 319.710938 362.171875 308.460938 365.523438 296.242188 C 369.054688 283.289062 370.757812 270.101562 370.640625 256.675781 Z M 370.640625 256.675781 " fill-opacity="1" fill-rule="evenodd"/></g></g></g></g></svg>