<svg xmlns="http://www.w3.org/2000/svg" xmlns:xlink="http://www.w3.org/1999/xlink" width="500" zoomAndPan="magnify" viewBox="0 0 375 374.999991" height="500" preserveAspectRatio="xMidYMid meet" version="1.0"><rect x="-37.5" width="450" fill="#ffffff" y="-37.499999" height="449.999989" fill-opacity="1"/><rect x="-37.5" width="450" fill="#ffffff" y="-37.499999" height="449.999989" fill-opacity="1"/><path fill="#1a5a96" d="M 254.054688 75.203125 C 254.054688 75.128906 254.0625 75.058594 254.0625 74.984375 C 254.0625 64.917969 247.296875 56.464844 238.160156 54.105469 L 238.160156 50.875 C 238.160156 49.609375 237.152344 48.582031 235.914062 48.582031 L 229.808594 48.582031 C 228.566406 48.582031 227.5625 49.605469 227.5625 50.875 L 227.5625 54.171875 C 218.542969 56.609375 211.890625 65.003906 211.890625 74.984375 C 211.890625 75.058594 211.894531 75.128906 211.894531 75.203125 C 207.683594 76.519531 205.132812 78.230469 205.132812 80.105469 C 205.128906 82.402344 208.960938 88.203125 214.992188 92.921875 C 217.59375 100.507812 224.660156 105.949219 232.976562 105.949219 C 241.292969 105.949219 248.359375 100.507812 250.960938 92.921875 C 256.988281 88.203125 260.820312 82.398438 260.820312 80.105469 C 260.820312 78.230469 258.265625 76.519531 254.054688 75.203125 Z M 254.054688 75.203125 " fill-opacity="1" fill-rule="nonzero"/><path fill="#1a5a96" d="M 233.953125 240.824219 L 233.40625 236.335938 C 224.855469 237.183594 222.308594 235.871094 210.359375 236.816406 L 210.824219 240.648438 L 191.09375 289.558594 C 188.679688 295.539062 191.46875 302.382812 197.324219 304.847656 C 203.183594 307.308594 209.882812 304.457031 212.296875 298.480469 L 233.175781 246.722656 C 233.925781 244.859375 234.195312 242.824219 233.953125 240.824219 Z M 233.953125 240.824219 " fill-opacity="1" fill-rule="nonzero"/><path fill="#1a5a96" d="M 265.484375 235.433594 L 263.96875 223.589844 C 257.476562 228.9375 250.195312 232.671875 242.269531 234.730469 L 242.492188 236.480469 L 231.070312 291.5625 C 229.761719 297.886719 233.71875 304.105469 239.914062 305.441406 C 246.109375 306.78125 252.195312 302.738281 253.503906 296.414062 L 265.332031 239.375 C 265.601562 238.078125 265.652344 236.746094 265.484375 235.433594 Z M 265.484375 235.433594 " fill-opacity="1" fill-rule="nonzero"/><path fill="#1a5a96" d="M 326.234375 165.035156 C 325.359375 161.882812 322.152344 160.050781 319.058594 160.945312 L 295.332031 167.808594 C 296.988281 171.453125 297.460938 175.652344 296.484375 179.808594 L 303.515625 177.777344 L 301.882812 183.929688 C 301.042969 187.09375 302.875 190.351562 305.972656 191.210938 C 309.066406 192.066406 312.257812 190.199219 313.097656 187.03125 L 316.554688 174.003906 L 322.226562 172.363281 C 325.3125 171.46875 327.105469 168.1875 326.234375 165.035156 Z M 326.234375 165.035156 " fill-opacity="1" fill-rule="nonzero"/><path fill="#1a5a96" d="M 276.136719 193.753906 L 264.089844 191.78125 C 258.054688 202.992188 246.199219 217.171875 225.050781 216.183594 C 206.542969 215.316406 189.390625 218.742188 176.042969 222.816406 C 177.980469 226.703125 178.0625 231.257812 176.375 235.179688 C 189.121094 231.011719 206.207031 227.1875 224.519531 228.039062 C 243.335938 228.917969 258.683594 220.519531 269.496094 205.269531 C 272.3125 201.300781 274.503906 197.308594 276.171875 193.757812 C 276.160156 193.753906 276.148438 193.753906 276.136719 193.753906 Z M 276.136719 193.753906 " fill-opacity="1" fill-rule="nonzero"/><path fill="#1a5a96" d="M 280.433594 166.136719 C 273.1875 164.949219 255.5625 162.066406 248.492188 160.910156 L 245.472656 154.148438 L 228.324219 161.78125 L 233.550781 173.492188 C 234.84375 176.390625 237.476562 178.453125 240.582031 178.960938 L 277.472656 184.996094 C 282.550781 185.828125 287.367188 182.308594 288.1875 177.078125 C 289.003906 171.867188 285.53125 166.972656 280.433594 166.136719 Z M 280.433594 166.136719 " fill-opacity="1" fill-rule="nonzero"/><path fill="#1a5a96" d="M 155.964844 96.058594 C 155.96875 95.984375 155.972656 95.914062 155.972656 95.839844 C 155.972656 85.773438 149.207031 77.320312 140.070312 74.960938 L 140.070312 71.726562 C 140.070312 70.460938 139.066406 69.433594 137.824219 69.433594 L 131.71875 69.433594 C 130.480469 69.433594 129.472656 70.460938 129.472656 71.726562 L 129.472656 75.023438 C 120.453125 77.464844 113.804688 85.859375 113.804688 95.839844 C 113.804688 95.910156 113.808594 95.984375 113.808594 96.058594 C 109.597656 97.375 107.042969 99.085938 107.042969 100.957031 C 107.042969 103.253906 110.871094 109.058594 116.902344 113.777344 C 119.503906 121.363281 126.570312 126.804688 134.886719 126.804688 C 143.203125 126.804688 150.269531 121.363281 152.871094 113.777344 C 158.898438 109.058594 162.730469 103.253906 162.730469 100.957031 C 162.730469 99.082031 160.179688 97.375 155.964844 96.058594 Z M 155.964844 96.058594 " fill-opacity="1" fill-rule="nonzero"/><path fill="#1a5a96" d="M 168.253906 313.179688 C 159.285156 247.5625 160.960938 260.078125 158.777344 242.996094 C 156.550781 242.210938 154.484375 240.847656 152.8125 238.917969 C 151.546875 237.460938 149.945312 235.929688 147.765625 234.105469 C 139.230469 226.957031 128.324219 221.871094 117.511719 223.757812 C 113.867188 224.394531 110.0625 226.078125 106.089844 228.09375 L 102.835938 263.273438 L 71.445312 288.464844 C 66.464844 292.460938 65.601562 299.820312 69.511719 304.90625 C 73.425781 309.992188 80.632812 310.875 85.613281 306.878906 L 120.871094 278.585938 C 123.339844 276.605469 124.90625 273.671875 125.203125 270.480469 L 128.761719 232.046875 L 134.25 232.046875 L 137.730469 259.277344 C 137.734375 259.3125 137.738281 259.347656 137.746094 259.382812 L 145.539062 316.417969 C 146.414062 322.816406 152.203125 327.289062 158.480469 326.398438 C 164.753906 325.5 169.128906 319.585938 168.253906 313.179688 Z M 168.253906 313.179688 " fill-opacity="1" fill-rule="nonzero"/><path fill="#1a5a96" d="M 167.761719 225.410156 C 155.226562 210.945312 134.226562 200.160156 114.15625 203.667969 C 111.535156 204.125 109.035156 204.828125 106.628906 205.683594 C 105.773438 216.546875 105.832031 216.921875 105.269531 219.054688 C 108.839844 217.375 112.402344 216.011719 116.113281 215.363281 C 132.257812 212.542969 146.1875 221.769531 153.054688 227.519531 C 155.582031 229.636719 157.492188 231.464844 159.054688 233.273438 C 161.183594 235.730469 164.855469 235.957031 167.257812 233.789062 C 169.660156 231.617188 169.886719 227.867188 167.761719 225.410156 Z M 167.761719 225.410156 " fill-opacity="1" fill-rule="nonzero"/><path fill="#1a5a96" d="M 71.234375 221.191406 C 65.5 222.972656 59.53125 224.4375 53.367188 225.554688 C 50.210938 226.128906 48.101562 229.207031 48.664062 232.433594 C 49.226562 235.667969 52.25 237.8125 55.398438 237.238281 C 63.964844 235.683594 72.210938 233.511719 80.015625 230.761719 C 76.078125 228.800781 72.925781 225.414062 71.234375 221.191406 Z M 71.234375 221.191406 " fill-opacity="1" fill-rule="nonzero"/><path fill="#1a5a96" d="M 94.703125 163.105469 L 86.339844 167.84375 C 83.738281 169.320312 81.8125 172.117188 81.554688 175.433594 C 81.191406 180.050781 78.925781 208.835938 78.5625 213.46875 C 78.148438 218.71875 81.976562 223.332031 87.136719 223.753906 C 92.195312 224.167969 96.785156 220.3125 97.207031 215 L 99.796875 182.066406 L 102.242188 180.679688 Z M 94.703125 163.105469 " fill-opacity="1" fill-rule="nonzero"/><path fill="#1a5a96" d="M 237.894531 187.429688 C 230.25 185.566406 225.84375 179.109375 225.089844 175.242188 C 221.304688 156.382812 219.695312 149.578125 219.695312 149.578125 C 219.695312 149.578125 222.789062 148.199219 239.515625 140.757812 L 234.292969 129.054688 L 253.777344 152.832031 L 253.777344 134.636719 C 253.777344 123.808594 245.183594 115.035156 234.585938 115.035156 L 224.632812 115.035156 C 214.03125 115.035156 205.4375 123.808594 205.4375 134.636719 L 205.4375 151.617188 C 205.324219 151.171875 205.1875 150.726562 205.011719 150.289062 C 202.871094 145.027344 196.964844 142.53125 191.8125 144.714844 L 162.21875 157.253906 L 155.566406 153.15625 C 154.449219 143.417969 146.347656 135.859375 136.511719 135.859375 L 126.558594 135.859375 C 116.929688 135.859375 108.960938 143.101562 107.582031 152.542969 L 119.398438 149.128906 C 119.398438 149.136719 119.398438 149.144531 119.398438 149.152344 L 107.402344 155.945312 L 114.941406 173.519531 L 129.816406 165.097656 L 108.1875 186.15625 L 107.367188 196.550781 C 109.113281 196.046875 110.910156 195.617188 112.773438 195.292969 C 127 192.808594 141.90625 196.082031 155.703125 204.542969 L 155.703125 177.335938 L 156.160156 177.613281 C 157.753906 178.597656 159.5625 179.097656 161.375 179.097656 C 162.6875 179.097656 164.003906 178.835938 165.246094 178.308594 L 199.554688 163.769531 C 202.582031 162.484375 204.664062 159.871094 205.441406 156.863281 C 205.441406 157.664062 205.441406 207.019531 205.441406 208.230469 C 212.527344 207.53125 219.226562 207.386719 225.425781 207.675781 C 238.769531 208.296875 248.363281 201.726562 255.289062 190.335938 C 237.796875 187.472656 238.933594 187.683594 237.894531 187.429688 Z M 237.894531 187.429688 " fill-opacity="1" fill-rule="nonzero"/></svg>