<svg xmlns="http://www.w3.org/2000/svg" xmlns:xlink="http://www.w3.org/1999/xlink" width="500" zoomAndPan="magnify" viewBox="0 0 375 374.999991" height="500" preserveAspectRatio="xMidYMid meet" version="1.0"><rect x="-37.5" width="450" fill="#ffffff" y="-37.499999" height="449.999989" fill-opacity="1"/><rect x="-37.5" width="450" fill="#ffffff" y="-37.499999" height="449.999989" fill-opacity="1"/><path fill="#1a5a96" d="M 80.507812 191.296875 L 80.507812 160.917969 C 80.507812 160.4375 80.699219 159.976562 81.035156 159.636719 C 81.375 159.296875 81.832031 159.105469 82.308594 159.105469 L 88.644531 159.105469 C 89.121094 159.105469 89.578125 159.296875 89.917969 159.636719 C 90.253906 159.976562 90.445312 160.4375 90.445312 160.917969 L 90.445312 191.296875 C 90.445312 191.777344 90.253906 192.238281 89.917969 192.578125 C 89.578125 192.917969 89.121094 193.109375 88.644531 193.109375 L 82.308594 193.109375 C 81.832031 193.109375 81.375 192.917969 81.035156 192.578125 C 80.699219 192.238281 80.507812 191.777344 80.507812 191.296875 Z M 41.023438 198.921875 L 51.660156 198.921875 C 51.949219 198.921875 52.238281 198.863281 52.507812 198.746094 C 52.773438 198.632812 53.015625 198.464844 53.21875 198.253906 L 56.664062 194.640625 C 57.125 194.15625 57.679688 193.773438 58.289062 193.511719 C 58.902344 193.246094 59.5625 193.109375 60.226562 193.109375 L 69.820312 193.109375 C 70.394531 193.109375 70.941406 192.878906 71.347656 192.472656 C 71.753906 192.0625 71.980469 191.511719 71.980469 190.933594 L 71.980469 161.28125 C 71.980469 160.703125 71.753906 160.152344 71.347656 159.742188 C 70.941406 159.335938 70.394531 159.105469 69.820312 159.105469 L 46.195312 159.105469 C 44.851562 159.109375 43.546875 159.546875 42.472656 160.359375 C 41.398438 161.171875 40.617188 162.3125 40.242188 163.609375 L 38.863281 196.65625 C 38.851562 196.949219 38.898438 197.242188 39 197.515625 C 39.105469 197.792969 39.261719 198.039062 39.460938 198.253906 C 39.664062 198.464844 39.90625 198.632812 40.175781 198.746094 C 40.441406 198.863281 40.730469 198.921875 41.023438 198.921875 Z M 88.363281 251.222656 C 88.363281 252.003906 88.367188 252.78125 88.371094 253.546875 C 88.371094 253.816406 88.375 254.085938 88.375 254.351562 L 96.414062 254.351562 L 96.414062 227.59375 L 73.859375 227.59375 C 78.214844 229.792969 81.878906 233.167969 84.441406 237.339844 C 87 241.511719 88.359375 246.316406 88.363281 251.222656 Z M 32.28125 238.714844 L 32.28125 250.078125 C 32.277344 250.503906 32.429688 250.917969 32.703125 251.242188 C 32.980469 251.566406 33.359375 251.78125 33.78125 251.847656 L 35.851562 252.179688 C 35.851562 251.863281 35.847656 251.542969 35.847656 251.222656 C 35.84375 246.855469 36.917969 242.558594 38.980469 238.714844 Z M 37.230469 153.101562 L 96.410156 153.101562 L 96.410156 224.796875 L 62.105469 224.796875 C 57.917969 224.796875 53.792969 225.808594 50.074219 227.742188 C 46.355469 229.675781 43.152344 232.480469 40.730469 235.914062 L 32.28125 235.914062 L 32.28125 232.597656 L 35.277344 232.597656 C 35.644531 232.597656 36 232.449219 36.261719 232.1875 C 36.519531 231.925781 36.667969 231.570312 36.667969 231.199219 L 36.667969 219.464844 C 36.667969 219.09375 36.519531 218.738281 36.261719 218.476562 C 36 218.210938 35.644531 218.066406 35.277344 218.066406 L 32.28125 218.066406 L 32.28125 203.753906 L 34.148438 156.082031 C 34.175781 155.28125 34.515625 154.523438 35.089844 153.964844 C 35.664062 153.410156 36.429688 153.101562 37.230469 153.101562 Z M 77.726562 191.296875 C 77.726562 192.519531 78.210938 193.691406 79.070312 194.558594 C 79.929688 195.421875 81.09375 195.90625 82.308594 195.910156 L 88.644531 195.910156 C 89.859375 195.90625 91.023438 195.421875 91.882812 194.558594 C 92.742188 193.691406 93.226562 192.519531 93.226562 191.296875 L 93.226562 160.917969 C 93.226562 159.695312 92.742188 158.523438 91.882812 157.660156 C 91.023438 156.792969 89.859375 156.308594 88.644531 156.308594 L 82.308594 156.308594 C 81.09375 156.308594 79.929688 156.792969 79.070312 157.660156 C 78.210938 158.523438 77.726562 159.695312 77.726562 160.917969 Z M 37.46875 163.332031 L 36.085938 196.539062 C 36.058594 197.210938 36.164062 197.878906 36.398438 198.507812 C 36.636719 199.132812 36.992188 199.707031 37.457031 200.191406 C 37.917969 200.675781 38.46875 201.058594 39.082031 201.324219 C 39.695312 201.585938 40.355469 201.722656 41.023438 201.722656 L 51.660156 201.722656 C 52.324219 201.71875 52.984375 201.585938 53.597656 201.320312 C 54.210938 201.058594 54.765625 200.675781 55.226562 200.191406 L 58.671875 196.578125 C 58.871094 196.367188 59.113281 196.199219 59.382812 196.082031 C 59.648438 195.96875 59.9375 195.910156 60.226562 195.90625 L 69.820312 195.90625 C 71.132812 195.90625 72.386719 195.382812 73.3125 194.449219 C 74.238281 193.519531 74.761719 192.253906 74.761719 190.933594 L 74.761719 161.28125 C 74.761719 159.960938 74.238281 158.695312 73.3125 157.765625 C 72.386719 156.832031 71.132812 156.308594 69.820312 156.308594 L 46.195312 156.308594 C 44.214844 156.308594 42.292969 156.96875 40.722656 158.183594 C 39.152344 159.398438 38.023438 161.101562 37.515625 163.027344 C 37.488281 163.128906 37.472656 163.226562 37.46875 163.332031 Z M 33.886719 220.863281 L 32.28125 220.863281 L 32.28125 229.800781 L 33.886719 229.800781 Z M 104.957031 153.101562 L 101.183594 153.101562 L 101.183594 212.003906 L 104.957031 212.003906 Z M 39.121094 148.65625 L 96.410156 148.65625 L 96.410156 113.785156 C 61.796875 116.796875 43.027344 128.21875 39.121094 148.65625 Z M 62.105469 240.183594 C 59.9375 240.183594 57.816406 240.832031 56.011719 242.042969 C 54.210938 243.257812 52.804688 244.980469 51.972656 247 C 51.144531 249.015625 50.925781 251.234375 51.351562 253.375 C 51.773438 255.515625 52.816406 257.480469 54.351562 259.027344 C 55.882812 260.570312 57.839844 261.621094 59.964844 262.046875 C 62.09375 262.472656 64.296875 262.253906 66.300781 261.417969 C 68.304688 260.582031 70.019531 259.167969 71.222656 257.355469 C 72.425781 255.539062 73.070312 253.40625 73.070312 251.222656 C 73.066406 248.296875 71.910156 245.492188 69.855469 243.421875 C 67.800781 241.351562 65.011719 240.1875 62.105469 240.183594 Z M 83.390625 251.222656 C 83.390625 255.457031 82.140625 259.601562 79.800781 263.121094 C 77.464844 266.648438 74.140625 269.390625 70.25 271.015625 C 66.363281 272.632812 62.082031 273.058594 57.953125 272.234375 C 53.824219 271.40625 50.03125 269.367188 47.054688 266.371094 C 44.078125 263.375 42.050781 259.558594 41.230469 255.402344 C 40.40625 251.246094 40.828125 246.9375 42.441406 243.023438 C 44.050781 239.109375 46.777344 235.765625 50.28125 233.410156 C 53.78125 231.054688 57.894531 229.800781 62.105469 229.800781 C 67.746094 229.804688 73.15625 232.066406 77.148438 236.082031 C 81.140625 240.097656 83.382812 245.542969 83.390625 251.222656 Z M 75.851562 251.222656 C 75.851562 248.484375 75.046875 245.808594 73.535156 243.535156 C 72.023438 241.257812 69.878906 239.484375 67.367188 238.4375 C 64.855469 237.390625 62.089844 237.117188 59.421875 237.652344 C 56.757812 238.183594 54.308594 239.503906 52.382812 241.4375 C 50.460938 243.371094 49.152344 245.835938 48.621094 248.523438 C 48.089844 251.207031 48.363281 253.988281 49.402344 256.515625 C 50.445312 259.042969 52.207031 261.207031 54.46875 262.726562 C 56.726562 264.246094 59.386719 265.058594 62.105469 265.054688 C 65.75 265.050781 69.242188 263.59375 71.820312 261 C 74.398438 258.40625 75.847656 254.890625 75.851562 251.222656 Z M 145.136719 225.132812 L 105.871094 225.132812 C 104.605469 225.132812 103.394531 225.640625 102.5 226.539062 C 101.605469 227.441406 101.101562 228.660156 101.101562 229.933594 L 101.101562 251.949219 C 101.101562 253.222656 101.605469 254.445312 102.5 255.34375 C 103.394531 256.242188 104.605469 256.75 105.871094 256.75 L 145.136719 256.75 C 146.402344 256.75 147.613281 256.242188 148.507812 255.34375 C 149.402344 254.445312 149.90625 253.222656 149.90625 251.949219 L 149.90625 229.933594 C 149.90625 228.660156 149.402344 227.441406 148.507812 226.542969 C 147.613281 225.640625 146.402344 225.132812 145.136719 225.132812 Z M 145.136719 225.132812 " fill-opacity="1" fill-rule="nonzero"/><path fill="#1a5a96" d="M 265.738281 248.175781 C 265.738281 234.59375 276.675781 223.585938 290.171875 223.585938 C 303.664062 223.585938 314.601562 234.59375 314.601562 248.175781 C 314.601562 261.753906 303.664062 272.765625 290.171875 272.765625 C 276.675781 272.765625 265.738281 261.753906 265.738281 248.175781 Z M 300.640625 248.175781 C 300.640625 242.355469 295.953125 237.636719 290.171875 237.636719 C 284.386719 237.636719 279.699219 242.355469 279.699219 248.175781 C 279.699219 253.996094 284.386719 258.714844 290.171875 258.714844 C 295.953125 258.714844 300.640625 253.996094 300.640625 248.175781 Z M 209.894531 248.175781 C 209.894531 234.59375 220.832031 223.585938 234.324219 223.585938 C 247.820312 223.585938 258.757812 234.59375 258.757812 248.175781 C 258.757812 261.753906 247.820312 272.765625 234.324219 272.765625 C 220.832031 272.765625 209.894531 261.753906 209.894531 248.175781 Z M 244.796875 248.175781 C 244.796875 242.355469 240.109375 237.636719 234.324219 237.636719 C 228.542969 237.636719 223.855469 242.355469 223.855469 248.175781 C 223.855469 253.996094 228.542969 258.714844 234.324219 258.714844 C 240.109375 258.714844 244.796875 253.996094 244.796875 248.175781 Z M 244.796875 248.175781 " fill-opacity="1" fill-rule="evenodd"/><path fill="#1a5a96" d="M 213.960938 216.550781 L 310.566406 216.550781 L 320.777344 234.535156 C 321.726562 236.207031 323.886719 236.8125 325.574219 235.84375 L 331.578125 232.390625 C 333.292969 231.402344 333.859375 229.257812 332.898438 227.566406 L 326.644531 216.550781 L 332.066406 216.550781 C 335.921875 216.550781 339.046875 213.40625 339.046875 209.523438 L 339.046875 128.730469 C 339.046875 124.847656 335.921875 121.703125 332.066406 121.703125 L 108.691406 121.703125 C 104.835938 121.703125 101.707031 124.847656 101.707031 128.730469 L 101.707031 209.523438 C 101.707031 213.40625 104.835938 216.550781 108.691406 216.550781 L 197.878906 216.550781 L 191.625 227.5625 C 190.675781 229.234375 191.253906 231.417969 192.945312 232.386719 L 198.949219 235.839844 C 200.664062 236.828125 202.785156 236.226562 203.746094 234.535156 Z M 213.960938 216.550781 " fill-opacity="1" fill-rule="evenodd"/><path fill="#ffffff" d="M 258.464844 189.652344 C 258.464844 185.65625 256.144531 183.871094 252.253906 182.011719 C 250.648438 181.265625 249.46875 180.621094 248.648438 180.085938 C 247.828125 179.550781 247.433594 178.835938 247.433594 177.945312 C 247.433594 176.410156 248.574219 175.371094 250.609375 175.371094 C 252.574219 175.371094 254.289062 175.910156 256.609375 176.871094 L 258.359375 172.660156 C 255.679688 171.519531 253.46875 170.875 250.789062 170.875 C 245.46875 170.875 242.152344 173.550781 242.152344 178.121094 C 242.152344 182.761719 245.863281 184.617188 248.21875 185.726562 C 251.039062 187.082031 253.183594 187.976562 253.183594 189.902344 C 253.183594 191.472656 252.183594 192.617188 249.503906 192.617188 C 246.933594 192.617188 244.292969 191.542969 241.863281 190.511719 L 241.863281 195.542969 C 243.972656 196.578125 246.398438 197.078125 249.078125 197.078125 C 255.074219 197.078125 258.464844 194.1875 258.464844 189.652344 Z M 258.464844 189.652344 " fill-opacity="1" fill-rule="nonzero"/><path fill="#ffffff" d="M 274.023438 196.722656 L 274.023438 187.652344 L 276.34375 187.652344 C 283.769531 187.652344 286.230469 183.691406 286.230469 179.191406 C 286.230469 174.230469 283.339844 171.230469 276.773438 171.230469 L 268.632812 171.230469 L 268.632812 196.722656 Z M 274.023438 175.65625 L 276.484375 175.65625 C 279.34375 175.65625 280.769531 176.90625 280.769531 179.371094 C 280.769531 182.085938 278.84375 183.226562 275.808594 183.226562 L 274.023438 183.226562 Z M 274.023438 175.65625 " fill-opacity="1" fill-rule="nonzero"/><path fill="#ffffff" d="M 296.40625 171.230469 L 296.40625 187.652344 C 296.40625 193.328125 300.011719 197.078125 306.757812 197.078125 C 313.863281 197.078125 317.324219 193.007812 317.324219 187.726562 L 317.324219 171.230469 L 311.933594 171.230469 L 311.933594 186.796875 C 311.933594 190.757812 310.433594 192.542969 306.898438 192.542969 C 303.507812 192.542969 301.796875 191.082031 301.796875 186.832031 L 301.796875 171.230469 Z M 296.40625 171.230469 " fill-opacity="1" fill-rule="nonzero"/></svg>